<svg width="512" height="512" viewBox="0 0 512 512" xmlns="http://www.w3.org/2000/svg">
  <defs>
    <linearGradient id="grad1" x1="0%" y1="0%" x2="100%" y2="100%">
      <stop offset="0%" style="stop-color:#3B82F6;stop-opacity:1" />
      <stop offset="100%" style="stop-color:#1E40AF;stop-opacity:1" />
    </linearGradient>
  </defs>
  
  <!-- Background -->
  <rect width="512" height="512" rx="80" fill="url(#grad1)"/>
  
  <!-- Dollar sign -->
  <g transform="translate(256,256)">
    <!-- Vertical line -->
    <rect x="-8" y="-180" width="16" height="360" fill="white" rx="8"/>
    
    <!-- Top curve -->
    <path d="M -80,-120 Q -80,-160 -40,-160 L 40,-160 Q 80,-160 80,-120 Q 80,-80 40,-80 L -40,-80" 
          stroke="white" stroke-width="16" fill="none" stroke-linecap="round"/>
    
    <!-- Bottom curve -->
    <path d="M 80,120 Q 80,160 40,160 L -40,160 Q -80,160 -80,120 Q -80,80 -40,80 L 40,80" 
          stroke="white" stroke-width="16" fill="none" stroke-linecap="round"/>
  </g>
  
  <!-- Chart elements -->
  <g transform="translate(100,350)">
    <rect x="0" y="0" width="20" height="60" fill="white" opacity="0.8" rx="4"/>
    <rect x="30" y="-20" width="20" height="80" fill="white" opacity="0.8" rx="4"/>
    <rect x="60" y="-40" width="20" height="100" fill="white" opacity="0.8" rx="4"/>
    <rect x="90" y="-10" width="20" height="70" fill="white" opacity="0.8" rx="4"/>
  </g>
  
  <!-- Coins -->
  <circle cx="400" cy="150" r="25" fill="white" opacity="0.9"/>
  <circle cx="430" cy="130" r="20" fill="white" opacity="0.7"/>
  <circle cx="450" cy="170" r="15" fill="white" opacity="0.5"/>
</svg>
